<svg width="20" height="20" viewBox="0 0 20 20" fill="none" xmlns="http://www.w3.org/2000/svg">
<path fill-rule="evenodd" clip-rule="evenodd" d="M10.0001 2.70866C8.38924 2.70866 7.08341 4.0145 7.08341 5.62533C7.08341 7.23616 8.38924 8.54199 10.0001 8.54199C11.6109 8.54199 12.9167 7.23616 12.9167 5.62533C12.9167 4.0145 11.6109 2.70866 10.0001 2.70866ZM5.41674 5.62533C5.41674 3.09402 7.46877 1.04199 10.0001 1.04199C12.5314 1.04199 14.5834 3.09402 14.5834 5.62533C14.5834 8.15663 12.5314 10.2087 10.0001 10.2087C7.46877 10.2087 5.41674 8.15663 5.41674 5.62533Z" fill="#424551"/>
<path fill-rule="evenodd" clip-rule="evenodd" d="M5.08679 12.7087C4.50902 12.7087 4.05743 12.99 3.87412 13.3942C3.62041 13.9536 3.39065 14.6196 3.33644 15.2513C3.3122 15.5337 3.42994 15.7418 3.59218 15.8426C4.44981 16.3753 6.43707 17.292 10.0001 17.292C13.5631 17.292 15.5503 16.3753 16.408 15.8426C16.5702 15.7418 16.6879 15.5337 16.6637 15.2513C16.6095 14.6196 16.3797 13.9536 16.126 13.3942C15.9427 12.99 15.4911 12.7087 14.9134 12.7087H5.08679ZM2.35626 12.7058C2.86288 11.5887 3.99416 11.042 5.08679 11.042H14.9134C16.006 11.042 17.1373 11.5887 17.6439 12.7058C17.9349 13.3474 18.2471 14.2099 18.3243 15.1088C18.3945 15.9273 18.0543 16.7819 17.2874 17.2583C16.1595 17.959 13.8664 18.9587 10.0001 18.9587C6.13374 18.9587 3.84066 17.959 2.71271 17.2583C1.94583 16.7819 1.60562 15.9273 1.67588 15.1088C1.75303 14.2099 2.06527 13.3474 2.35626 12.7058Z" fill="#424551"/>
</svg>
